<?xml version="1.0" encoding="utf-8"?>
<!-- Generator: Adobe Illustrator 26.1.0, SVG Export Plug-In . SVG Version: 6.00 Build 0)  -->
<svg version="1.1" id="Layer_1" xmlns="http://www.w3.org/2000/svg" xmlns:xlink="http://www.w3.org/1999/xlink" x="0px" y="0px"
	 viewBox="0 0 177 119.5" style="enable-background:new 0 0 177 119.5;" xml:space="preserve">
<style type="text/css">
	.st0{fill:#1D2125;}
</style>
<g>
	<path class="st0" d="M118.1,4.6c-2.7-2.3-6.1-4.6-11.5-4.6S86.3,5.3,92.3,25.1c1.5,5.3,11.6,19.3,12.2,19.6
		c-2.3,2.6-11.1,11.4-16,16.9c-4.9-5.5-13.7-14.3-16-16.9c0.6-0.3,10.8-14.3,12.2-19.6C90.6,5.3,75.7,0,70.4,0s-8.8,2.3-11.5,4.6
		c-8.1,7.1-9.8,15.7-8.9,26.4c0.6,7.3,3.3,14,7,20.2c1.8,2.9,13.4,20.6,31.4,20.6s29.7-17.6,31.4-20.6c3.8-6.2,6.4-12.9,7-20.2
		C127.8,20.3,126.2,11.7,118.1,4.6z M68,23.5c-2.5,0-4.5-2-4.5-4.5s2-4.5,4.5-4.5s4.5,2,4.5,4.5S70.5,23.5,68,23.5z M109,23.5
		c-2.5,0-4.5-2-4.5-4.5s2-4.5,4.5-4.5c2.5,0,4.5,2,4.5,4.5S111.5,23.5,109,23.5z"/>
	<g>
		<path class="st0" d="M12.5,98.1v20.6H5.7V98.1H0v-5.8h18.2v5.8H12.5z"/>
		<path class="st0" d="M36.3,98.1h-8.2v4.4h7.7v5.8h-7.7v4.6h8.2v5.8H21.2V92.3h15.1V98.1z"/>
		<path class="st0" d="M55.8,99.1c-0.7-0.6-1.5-1.1-2.2-1.4c-0.7-0.3-1.5-0.4-2.2-0.4c-0.9,0-1.6,0.2-2.2,0.6
			c-0.6,0.4-0.8,1-0.8,1.6c0,0.5,0.1,0.9,0.4,1.2c0.3,0.3,0.6,0.6,1.1,0.8c0.5,0.2,1,0.4,1.5,0.6c0.6,0.2,1.1,0.3,1.7,0.5
			c2.2,0.7,3.9,1.7,4.9,3s1.6,2.9,1.6,4.9c0,1.4-0.2,2.6-0.7,3.7s-1.1,2-2,2.8c-0.9,0.8-2,1.4-3.2,1.8c-1.3,0.4-2.7,0.6-4.3,0.6
			c-3.3,0-6.4-1-9.3-3L43,111c1,0.9,2,1.6,3.1,2c1,0.4,2,0.7,3,0.7c1.1,0,2-0.3,2.5-0.8c0.5-0.5,0.8-1.1,0.8-1.8
			c0-0.4-0.1-0.7-0.2-1c-0.1-0.3-0.4-0.6-0.7-0.8c-0.3-0.2-0.8-0.5-1.3-0.7c-0.5-0.2-1.2-0.4-1.9-0.7c-0.9-0.3-1.8-0.6-2.6-0.9
			c-0.9-0.3-1.6-0.8-2.3-1.4c-0.7-0.6-1.2-1.3-1.6-2.1c-0.4-0.9-0.6-1.9-0.6-3.2c0-1.3,0.2-2.5,0.6-3.6c0.4-1.1,1-2,1.8-2.7
			c0.8-0.8,1.7-1.4,2.9-1.8c1.1-0.4,2.4-0.6,3.8-0.6c1.3,0,2.7,0.2,4.1,0.5c1.4,0.4,2.8,0.9,4.1,1.6L55.8,99.1z"/>
		<path class="st0" d="M74.1,98.1v20.6h-6.9V98.1h-5.7v-5.8h18.2v5.8H74.1z"/>
		<path class="st0" d="M89.7,92.3v26.5h-6.9V92.3H89.7z"/>
		<path class="st0" d="M108.1,103.9h13.7c0,1.4-0.1,2.7-0.2,3.8c-0.1,1.1-0.4,2.2-0.7,3.2c-0.5,1.4-1.2,2.6-2,3.7
			c-0.8,1.1-1.8,2-3,2.7c-1.1,0.7-2.4,1.3-3.7,1.6c-1.4,0.4-2.8,0.6-4.3,0.6c-2.1,0-3.9-0.3-5.6-1c-1.7-0.7-3.2-1.6-4.4-2.9
			c-1.2-1.2-2.2-2.7-2.8-4.4c-0.7-1.7-1-3.6-1-5.7c0-2.1,0.3-3.9,1-5.7c0.7-1.7,1.6-3.2,2.8-4.4c1.2-1.2,2.7-2.2,4.4-2.8
			c1.7-0.7,3.7-1,5.8-1c2.8,0,5.2,0.6,7.3,1.8c2.1,1.2,3.7,3,4.9,5.5l-6.5,2.7c-0.6-1.5-1.4-2.5-2.4-3.1c-1-0.6-2.1-0.9-3.3-0.9
			c-1,0-2,0.2-2.8,0.6c-0.8,0.4-1.6,0.9-2.2,1.6c-0.6,0.7-1.1,1.6-1.4,2.6c-0.3,1-0.5,2.1-0.5,3.4c0,1.1,0.1,2.2,0.4,3.1
			c0.3,1,0.7,1.8,1.3,2.5c0.6,0.7,1.3,1.2,2.2,1.6c0.9,0.4,1.9,0.6,3,0.6c0.7,0,1.3-0.1,2-0.2c0.6-0.2,1.2-0.4,1.7-0.7
			c0.5-0.3,0.9-0.8,1.2-1.3c0.3-0.5,0.5-1.2,0.7-2h-5.7V103.9z"/>
		<path class="st0" d="M125,105.5c0-2,0.4-3.8,1.1-5.5c0.7-1.7,1.7-3.2,3-4.4c1.3-1.3,2.8-2.3,4.6-3c1.8-0.7,3.8-1.1,5.9-1.1
			c2.1,0,4.1,0.4,5.9,1.1c1.8,0.7,3.4,1.7,4.7,3c1.3,1.3,2.3,2.7,3,4.4s1.1,3.5,1.1,5.5c0,2-0.4,3.8-1.1,5.5s-1.7,3.2-3,4.4
			c-1.3,1.3-2.8,2.3-4.7,3c-1.8,0.7-3.8,1.1-5.9,1.1c-2.2,0-4.1-0.4-5.9-1.1c-1.8-0.7-3.3-1.7-4.6-3c-1.3-1.3-2.3-2.7-3-4.4
			C125.3,109.3,125,107.5,125,105.5z M132.2,105.5c0,1.1,0.2,2,0.6,2.9c0.4,0.9,0.9,1.7,1.6,2.3c0.7,0.7,1.5,1.2,2.4,1.5
			c0.9,0.4,1.9,0.5,2.9,0.5c1,0,2-0.2,2.9-0.5c0.9-0.4,1.7-0.9,2.4-1.5c0.7-0.7,1.2-1.4,1.6-2.3c0.4-0.9,0.6-1.9,0.6-2.9
			c0-1.1-0.2-2-0.6-2.9c-0.4-0.9-0.9-1.7-1.6-2.3c-0.7-0.7-1.5-1.2-2.4-1.5c-0.9-0.4-1.9-0.5-2.9-0.5c-1,0-2,0.2-2.9,0.5
			c-0.9,0.4-1.7,0.9-2.4,1.5c-0.7,0.7-1.2,1.4-1.6,2.3C132.4,103.5,132.2,104.5,132.2,105.5z"/>
		<path class="st0" d="M173.2,99.1c-0.7-0.6-1.5-1.1-2.2-1.4c-0.7-0.3-1.5-0.4-2.2-0.4c-0.9,0-1.6,0.2-2.2,0.6
			c-0.6,0.4-0.8,1-0.8,1.6c0,0.5,0.1,0.9,0.4,1.2c0.3,0.3,0.6,0.6,1.1,0.8c0.5,0.2,1,0.4,1.5,0.6c0.6,0.2,1.1,0.3,1.7,0.5
			c2.2,0.7,3.9,1.7,4.9,3c1,1.3,1.6,2.9,1.6,4.9c0,1.4-0.2,2.6-0.7,3.7s-1.1,2-2,2.8c-0.9,0.8-2,1.4-3.2,1.8
			c-1.3,0.4-2.7,0.6-4.3,0.6c-3.3,0-6.4-1-9.3-3l2.9-5.5c1,0.9,2,1.6,3.1,2c1,0.4,2,0.7,3,0.7c1.1,0,2-0.3,2.5-0.8
			c0.5-0.5,0.8-1.1,0.8-1.8c0-0.4-0.1-0.7-0.2-1c-0.1-0.3-0.4-0.6-0.7-0.8c-0.3-0.2-0.8-0.5-1.3-0.7c-0.5-0.2-1.2-0.4-1.9-0.7
			c-0.9-0.3-1.8-0.6-2.6-0.9c-0.9-0.3-1.6-0.8-2.3-1.4c-0.7-0.6-1.2-1.3-1.6-2.1c-0.4-0.9-0.6-1.9-0.6-3.2c0-1.3,0.2-2.5,0.6-3.6
			s1-2,1.8-2.7c0.8-0.8,1.7-1.4,2.9-1.8c1.1-0.4,2.4-0.6,3.8-0.6c1.3,0,2.7,0.2,4.1,0.5c1.4,0.4,2.8,0.9,4.1,1.6L173.2,99.1z"/>
	</g>
</g>
</svg>
